STARTFONT 2.1
FONT -stepleton-Lisa Console-Medium-R-Normal--16-120-96-96-M-100-FontSpecific-0
SIZE 12 96 96
FONTBOUNDINGBOX 8 9 0 -2
STARTPROPERTIES 9
POINT_SIZE 120
PIXEL_SIZE 16
RESOLUTION_X 96
RESOLUTION_Y 96
FONT_ASCENT 7
FONT_DESCENT 3
AVERAGE_WIDTH 100
SPACING "M"
_GBDFED_INFO "Edited with gbdfed 1.6."
ENDPROPERTIES
CHARS 256
STARTCHAR NULL
ENCODING 0
SWIDTH 500 0
DWIDTH 8 0
BBX 7 9 0 -2
BITMAP
FE
FE
FE
FE
FE
FE
FE
FE
FE
ENDCHAR
STARTCHAR START OF HEADING
ENCODING 1
SWIDTH 500 0
DWIDTH 8 0
BBX 7 9 0 -2
BITMAP
FE
FE
FE
FE
FE
FE
EE
FE
FE
ENDCHAR
STARTCHAR START OF TEXT
ENCODING 2
SWIDTH 500 0
DWIDTH 8 0
BBX 7 9 0 -2
BITMAP
FE
FE
FE
FE
FE
FE
D6
FE
FE
ENDCHAR
STARTCHAR END OF TEXT
ENCODING 3
SWIDTH 500 0
DWIDTH 8 0
BBX 7 9 0 -2
BITMAP
FE
FE
FE
FE
FE
FE
AA
FE
FE
ENDCHAR
STARTCHAR END OF TRANSMISSION
ENCODING 4
SWIDTH 500 0
DWIDTH 8 0
BBX 7 9 0 -2
BITMAP
FE
FE
FE
FE
FE
D6
FE
D6
FE
ENDCHAR
STARTCHAR ENQUIRY
ENCODING 5
SWIDTH 500 0
DWIDTH 8 0
BBX 7 9 0 -2
BITMAP
FE
FE
FE
FE
FE
BA
EE
BA
FE
ENDCHAR
STARTCHAR ACKNOWLEDGE
ENCODING 6
SWIDTH 500 0
DWIDTH 8 0
BBX 7 9 0 -2
BITMAP
FE
FE
FE
FE
FE
AA
FE
AA
FE
ENDCHAR
STARTCHAR BELL
ENCODING 7
SWIDTH 500 0
DWIDTH 8 0
BBX 7 9 0 -2
BITMAP
FE
FE
FE
FE
FE
AA
EE
AA
FE
ENDCHAR
STARTCHAR BACKSPACE
ENCODING 8
SWIDTH 500 0
DWIDTH 8 0
BBX 7 9 0 -2
BITMAP
FE
FE
FE
FE
FE
AA
BA
AA
FE
ENDCHAR
STARTCHAR CHARACTER TABULATION
ENCODING 9
SWIDTH 500 0
DWIDTH 8 0
BBX 7 9 0 -2
BITMAP
FE
FE
FE
FE
FE
AA
AA
AA
FE
ENDCHAR
STARTCHAR LINE FEED
ENCODING 10
SWIDTH 500 0
DWIDTH 8 0
BBX 7 9 0 -2
BITMAP
FE
FE
FE
FE
FE
A2
BA
8A
FE
ENDCHAR
STARTCHAR LINE TABULATION
ENCODING 11
SWIDTH 500 0
DWIDTH 8 0
BBX 7 9 0 -2
BITMAP
FE
FE
FE
FE
FE
A2
AA
8A
FE
ENDCHAR
STARTCHAR FORM FEED
ENCODING 12
SWIDTH 500 0
DWIDTH 8 0
BBX 7 9 0 -2
BITMAP
FE
FE
FE
FE
FE
82
AA
8A
FE
ENDCHAR
STARTCHAR CARRIAGE RETURN
ENCODING 13
SWIDTH 500 0
DWIDTH 8 0
BBX 7 9 0 -2
BITMAP
FE
FE
FE
FE
FE
82
AA
82
FE
ENDCHAR
STARTCHAR SHIFT OUT
ENCODING 14
SWIDTH 500 0
DWIDTH 8 0
BBX 7 9 0 -2
BITMAP
FE
FE
FE
FE
FE
82
92
82
FE
ENDCHAR
STARTCHAR SHIFT IN
ENCODING 15
SWIDTH 500 0
DWIDTH 8 0
BBX 7 9 0 -2
BITMAP
FE
FE
FE
FE
FE
82
82
82
FE
ENDCHAR
STARTCHAR DATA LINK ESCAPE
ENCODING 16
SWIDTH 500 0
DWIDTH 8 0
BBX 7 9 0 -2
BITMAP
FE
FE
EE
FE
FE
FE
FE
FE
FE
ENDCHAR
STARTCHAR DEVICE CONTROL ONE
ENCODING 17
SWIDTH 500 0
DWIDTH 8 0
BBX 7 9 0 -2
BITMAP
FE
FE
EE
FE
FE
FE
EE
FE
FE
ENDCHAR
STARTCHAR DEVICE CONTROL TWO
ENCODING 18
SWIDTH 500 0
DWIDTH 8 0
BBX 7 9 0 -2
BITMAP
FE
FE
EE
FE
FE
FE
D6
FE
FE
ENDCHAR
STARTCHAR DEVICE CONTROL THREE
ENCODING 19
SWIDTH 500 0
DWIDTH 8 0
BBX 7 9 0 -2
BITMAP
FE
FE
EE
FE
FE
FE
AA
FE
FE
ENDCHAR
STARTCHAR DEVICE CONTROL FOUR
ENCODING 20
SWIDTH 500 0
DWIDTH 8 0
BBX 7 9 0 -2
BITMAP
FE
FE
EE
FE
FE
D6
FE
D6
FE
ENDCHAR
STARTCHAR NEGATIVE ACKNOWLEDGE
ENCODING 21
SWIDTH 500 0
DWIDTH 8 0
BBX 7 9 0 -2
BITMAP
FE
FE
EE
FE
FE
BA
EE
BA
FE
ENDCHAR
STARTCHAR SYNCHRONOUS IDLE
ENCODING 22
SWIDTH 500 0
DWIDTH 8 0
BBX 7 9 0 -2
BITMAP
FE
FE
EE
FE
FE
AA
FE
AA
FE
ENDCHAR
STARTCHAR END OF TRANSMISSION BLOCK
ENCODING 23
SWIDTH 500 0
DWIDTH 8 0
BBX 7 9 0 -2
BITMAP
FE
FE
EE
FE
FE
AA
EE
AA
FE
ENDCHAR
STARTCHAR CANCEL
ENCODING 24
SWIDTH 500 0
DWIDTH 8 0
BBX 7 9 0 -2
BITMAP
FE
FE
EE
FE
FE
AA
BA
AA
FE
ENDCHAR
STARTCHAR END OF MEDIUM
ENCODING 25
SWIDTH 500 0
DWIDTH 8 0
BBX 7 9 0 -2
BITMAP
FE
FE
EE
FE
FE
AA
AA
AA
FE
ENDCHAR
STARTCHAR SUBSTITUTE
ENCODING 26
SWIDTH 500 0
DWIDTH 8 0
BBX 7 9 0 -2
BITMAP
FE
FE
EE
FE
FE
A2
BA
8A
FE
ENDCHAR
STARTCHAR ESCAPE
ENCODING 27
SWIDTH 500 0
DWIDTH 8 0
BBX 7 9 0 -2
BITMAP
FE
FE
EE
FE
FE
A2
AA
8A
FE
ENDCHAR
STARTCHAR INFORMATION SEPARATOR FOUR
ENCODING 28
SWIDTH 500 0
DWIDTH 8 0
BBX 7 9 0 -2
BITMAP
FE
FE
EE
FE
FE
82
AA
8A
FE
ENDCHAR
STARTCHAR INFORMATION SEPARATOR THREE
ENCODING 29
SWIDTH 500 0
DWIDTH 8 0
BBX 7 9 0 -2
BITMAP
FE
FE
EE
FE
FE
82
AA
82
FE
ENDCHAR
STARTCHAR INFORMATION SEPARATOR TWO
ENCODING 30
SWIDTH 500 0
DWIDTH 8 0
BBX 7 9 0 -2
BITMAP
FE
FE
EE
FE
FE
82
92
82
FE
ENDCHAR
STARTCHAR INFORMATION SEPARATOR ONE
ENCODING 31
SWIDTH 500 0
DWIDTH 8 0
BBX 7 9 0 -2
BITMAP
FE
FE
EE
FE
FE
82
82
82
FE
ENDCHAR
STARTCHAR SPACE
ENCODING 32
SWIDTH 500 0
DWIDTH 8 0
BBX 0 0 0 0
BITMAP
ENDCHAR
STARTCHAR EXCLAMATION MARK
ENCODING 33
SWIDTH 500 0
DWIDTH 8 0
BBX 1 7 3 0
BITMAP
80
80
80
80
80
00
80
ENDCHAR
STARTCHAR QUOTATION MARK
ENCODING 34
SWIDTH 500 0
DWIDTH 8 0
BBX 3 3 2 4
BITMAP
A0
A0
A0
ENDCHAR
STARTCHAR NUMBER SIGN
ENCODING 35
SWIDTH 500 0
DWIDTH 8 0
BBX 7 7 0 0
BITMAP
28
28
FE
28
FE
28
28
ENDCHAR
STARTCHAR DOLLAR SIGN
ENCODING 36
SWIDTH 500 0
DWIDTH 8 0
BBX 7 7 0 0
BITMAP
7C
8A
90
7C
12
A2
7C
ENDCHAR
STARTCHAR PERCENT SIGN
ENCODING 37
SWIDTH 500 0
DWIDTH 8 0
BBX 7 7 0 0
BITMAP
44
A8
48
10
24
2A
44
ENDCHAR
STARTCHAR AMPERSAND
ENCODING 38
SWIDTH 500 0
DWIDTH 8 0
BBX 7 7 0 0
BITMAP
60
94
84
7E
44
44
38
ENDCHAR
STARTCHAR APOSTROPHE
ENCODING 39
SWIDTH 500 0
DWIDTH 8 0
BBX 1 3 3 4
BITMAP
80
80
80
ENDCHAR
STARTCHAR LEFT PARENTHESIS
ENCODING 40
SWIDTH 500 0
DWIDTH 8 0
BBX 3 8 3 -1
BITMAP
20
40
80
80
80
80
40
20
ENDCHAR
STARTCHAR RIGHT PARENTHESIS
ENCODING 41
SWIDTH 500 0
DWIDTH 8 0
BBX 3 8 2 -1
BITMAP
80
40
20
20
20
20
40
80
ENDCHAR
STARTCHAR ASTERISK
ENCODING 42
SWIDTH 500 0
DWIDTH 8 0
BBX 5 5 1 1
BITMAP
20
A8
70
A8
20
ENDCHAR
STARTCHAR PLUS SIGN
ENCODING 43
SWIDTH 500 0
DWIDTH 8 0
BBX 5 5 1 1
BITMAP
20
20
F8
20
20
ENDCHAR
STARTCHAR COMMA
ENCODING 44
SWIDTH 500 0
DWIDTH 8 0
BBX 2 3 2 -1
BITMAP
40
40
80
ENDCHAR
STARTCHAR HYPHEN-MINUS
ENCODING 45
SWIDTH 500 0
DWIDTH 8 0
BBX 5 1 1 3
BITMAP
F8
ENDCHAR
STARTCHAR FULL STOP
ENCODING 46
SWIDTH 500 0
DWIDTH 8 0
BBX 2 2 3 0
BITMAP
C0
C0
ENDCHAR
STARTCHAR SOLIDUS
ENCODING 47
SWIDTH 500 0
DWIDTH 8 0
BBX 6 8 0 -1
BITMAP
04
08
08
10
10
20
20
40
ENDCHAR
STARTCHAR DIGIT ZERO
ENCODING 48
SWIDTH 500 0
DWIDTH 8 0
BBX 7 7 0 0
BITMAP
38
44
8A
92
A2
44
38
ENDCHAR
STARTCHAR DIGIT ONE
ENCODING 49
SWIDTH 500 0
DWIDTH 8 0
BBX 6 7 0 0
BITMAP
10
30
50
10
10
10
7C
ENDCHAR
STARTCHAR DIGIT TWO
ENCODING 50
SWIDTH 500 0
DWIDTH 8 0
BBX 7 7 0 0
BITMAP
7C
82
82
1C
60
82
FE
ENDCHAR
STARTCHAR DIGIT THREE
ENCODING 51
SWIDTH 500 0
DWIDTH 8 0
BBX 7 7 0 0
BITMAP
7C
82
02
1C
02
82
7C
ENDCHAR
STARTCHAR DIGIT FOUR
ENCODING 52
SWIDTH 500 0
DWIDTH 8 0
BBX 7 7 0 0
BITMAP
24
24
44
84
FE
04
0E
ENDCHAR
STARTCHAR DIGIT FIVE
ENCODING 53
SWIDTH 500 0
DWIDTH 8 0
BBX 7 7 0 0
BITMAP
FE
80
80
7C
02
82
7C
ENDCHAR
STARTCHAR DIGIT SIX
ENCODING 54
SWIDTH 500 0
DWIDTH 8 0
BBX 7 7 0 0
BITMAP
7C
82
80
FC
82
82
7C
ENDCHAR
STARTCHAR DIGIT SEVEN
ENCODING 55
SWIDTH 500 0
DWIDTH 8 0
BBX 7 7 0 0
BITMAP
FE
02
04
08
08
10
10
ENDCHAR
STARTCHAR DIGIT EIGHT
ENCODING 56
SWIDTH 500 0
DWIDTH 8 0
BBX 7 7 0 0
BITMAP
7C
82
82
7C
82
82
7C
ENDCHAR
STARTCHAR DIGIT NINE
ENCODING 57
SWIDTH 500 0
DWIDTH 8 0
BBX 7 7 0 0
BITMAP
7C
82
82
7E
02
82
7C
ENDCHAR
STARTCHAR COLON
ENCODING 58
SWIDTH 500 0
DWIDTH 8 0
BBX 4 6 0 0
BITMAP
10
10
00
00
10
10
ENDCHAR
STARTCHAR SEMICOLON
ENCODING 59
SWIDTH 500 0
DWIDTH 8 0
BBX 4 7 0 -1
BITMAP
10
10
00
00
10
10
20
ENDCHAR
STARTCHAR LESS-THAN SIGN
ENCODING 60
SWIDTH 500 0
DWIDTH 8 0
BBX 6 5 0 1
BITMAP
0C
30
C0
30
0C
ENDCHAR
STARTCHAR EQUALS SIGN
ENCODING 61
SWIDTH 500 0
DWIDTH 8 0
BBX 6 3 1 2
BITMAP
F8
00
F8
ENDCHAR
STARTCHAR GREATER-THAN SIGN
ENCODING 62
SWIDTH 500 0
DWIDTH 8 0
BBX 7 5 1 1
BITMAP
C0
30
0C
30
C0
ENDCHAR
STARTCHAR QUESTION MARK
ENCODING 63
SWIDTH 500 0
DWIDTH 8 0
BBX 7 7 0 0
BITMAP
7C
82
82
0C
10
00
10
ENDCHAR
STARTCHAR COMMERCIAL AT
ENCODING 64
SWIDTH 500 0
DWIDTH 8 0
BBX 7 7 0 0
BITMAP
38
44
9A
AA
9C
42
3C
ENDCHAR
STARTCHAR LATIN CAPITAL LETTER A
ENCODING 65
SWIDTH 500 0
DWIDTH 8 0
BBX 7 7 0 0
BITMAP
38
44
82
FE
82
82
82
ENDCHAR
STARTCHAR LATIN CAPITAL LETTER B
ENCODING 66
SWIDTH 500 0
DWIDTH 8 0
BBX 7 7 0 0
BITMAP
FC
42
42
7C
42
42
FC
ENDCHAR
STARTCHAR LATIN CAPITAL LETTER C
ENCODING 67
SWIDTH 500 0
DWIDTH 8 0
BBX 7 7 0 0
BITMAP
3C
42
80
80
80
42
3C
ENDCHAR
STARTCHAR LATIN CAPITAL LETTER D
ENCODING 68
SWIDTH 500 0
DWIDTH 8 0
BBX 7 7 0 0
BITMAP
F8
44
42
42
42
44
F8
ENDCHAR
STARTCHAR LATIN CAPITAL LETTER E
ENCODING 69
SWIDTH 500 0
DWIDTH 8 0
BBX 7 7 0 0
BITMAP
FE
42
40
78
40
42
FE
ENDCHAR
STARTCHAR LATIN CAPITAL LETTER F
ENCODING 70
SWIDTH 500 0
DWIDTH 8 0
BBX 7 7 0 0
BITMAP
FE
42
40
78
40
40
E0
ENDCHAR
STARTCHAR LATIN CAPITAL LETTER G
ENCODING 71
SWIDTH 500 0
DWIDTH 8 0
BBX 7 7 0 0
BITMAP
38
44
80
8E
82
44
38
ENDCHAR
STARTCHAR LATIN CAPITAL LETTER H
ENCODING 72
SWIDTH 500 0
DWIDTH 8 0
BBX 7 7 0 0
BITMAP
82
82
82
FE
82
82
82
ENDCHAR
STARTCHAR LATIN CAPITAL LETTER I
ENCODING 73
SWIDTH 500 0
DWIDTH 8 0
BBX 6 7 0 0
BITMAP
7C
10
10
10
10
10
7C
ENDCHAR
STARTCHAR LATIN CAPITAL LETTER J
ENCODING 74
SWIDTH 500 0
DWIDTH 8 0
BBX 7 7 0 0
BITMAP
02
02
02
02
82
44
38
ENDCHAR
STARTCHAR LATIN CAPITAL LETTER K
ENCODING 75
SWIDTH 500 0
DWIDTH 8 0
BBX 7 7 0 0
BITMAP
82
84
88
F0
88
84
82
ENDCHAR
STARTCHAR LATIN CAPITAL LETTER L
ENCODING 76
SWIDTH 500 0
DWIDTH 8 0
BBX 7 7 0 0
BITMAP
E0
40
40
40
40
42
FE
ENDCHAR
STARTCHAR LATIN CAPITAL LETTER M
ENCODING 77
SWIDTH 500 0
DWIDTH 8 0
BBX 7 7 0 0
BITMAP
82
C6
AA
92
82
82
82
ENDCHAR
STARTCHAR LATIN CAPITAL LETTER N
ENCODING 78
SWIDTH 500 0
DWIDTH 8 0
BBX 7 7 0 0
BITMAP
82
C2
A2
92
8A
86
82
ENDCHAR
STARTCHAR LATIN CAPITAL LETTER O
ENCODING 79
SWIDTH 500 0
DWIDTH 8 0
BBX 7 7 0 0
BITMAP
38
44
82
82
82
44
38
ENDCHAR
STARTCHAR LATIN CAPITAL LETTER P
ENCODING 80
SWIDTH 500 0
DWIDTH 8 0
BBX 7 7 0 0
BITMAP
FC
42
42
7C
40
40
E0
ENDCHAR
STARTCHAR LATIN CAPITAL LETTER Q
ENCODING 81
SWIDTH 500 0
DWIDTH 8 0
BBX 7 7 0 0
BITMAP
38
44
82
82
9A
44
3A
ENDCHAR
STARTCHAR LATIN CAPITAL LETTER R
ENCODING 82
SWIDTH 500 0
DWIDTH 8 0
BBX 7 7 0 0
BITMAP
FC
42
42
7C
48
44
E2
ENDCHAR
STARTCHAR LATIN CAPITAL LETTER S
ENCODING 83
SWIDTH 500 0
DWIDTH 8 0
BBX 7 7 0 0
BITMAP
7C
82
80
7C
02
82
7C
ENDCHAR
STARTCHAR LATIN CAPITAL LETTER T
ENCODING 84
SWIDTH 500 0
DWIDTH 8 0
BBX 7 7 0 0
BITMAP
FE
92
10
10
10
10
38
ENDCHAR
STARTCHAR LATIN CAPITAL LETTER U
ENCODING 85
SWIDTH 500 0
DWIDTH 8 0
BBX 7 7 0 0
BITMAP
82
82
82
82
82
44
38
ENDCHAR
STARTCHAR LATIN CAPITAL LETTER V
ENCODING 86
SWIDTH 500 0
DWIDTH 8 0
BBX 7 7 0 0
BITMAP
82
82
44
44
28
28
10
ENDCHAR
STARTCHAR LATIN CAPITAL LETTER W
ENCODING 87
SWIDTH 500 0
DWIDTH 8 0
BBX 7 7 0 0
BITMAP
82
82
82
92
92
AA
44
ENDCHAR
STARTCHAR LATIN CAPITAL LETTER X
ENCODING 88
SWIDTH 500 0
DWIDTH 8 0
BBX 7 7 0 0
BITMAP
82
44
28
10
28
44
82
ENDCHAR
STARTCHAR LATIN CAPITAL LETTER Y
ENCODING 89
SWIDTH 500 0
DWIDTH 8 0
BBX 7 7 0 0
BITMAP
82
44
28
10
10
10
10
ENDCHAR
STARTCHAR LATIN CAPITAL LETTER Z
ENCODING 90
SWIDTH 500 0
DWIDTH 8 0
BBX 7 7 0 0
BITMAP
FE
84
08
10
20
42
FE
ENDCHAR
STARTCHAR LEFT SQUARE BRACKET
ENCODING 91
SWIDTH 500 0
DWIDTH 8 0
BBX 3 8 2 -1
BITMAP
E0
80
80
80
80
80
80
E0
ENDCHAR
STARTCHAR REVERSE SOLIDUS
ENCODING 92
SWIDTH 500 0
DWIDTH 8 0
BBX 6 8 0 -1
BITMAP
40
20
20
10
10
08
08
04
ENDCHAR
STARTCHAR RIGHT SQUARE BRACKET
ENCODING 93
SWIDTH 500 0
DWIDTH 8 0
BBX 5 8 0 -1
BITMAP
38
08
08
08
08
08
08
38
ENDCHAR
STARTCHAR CIRCUMFLEX ACCENT
ENCODING 94
SWIDTH 500 0
DWIDTH 8 0
BBX 5 3 1 4
BITMAP
20
50
88
ENDCHAR
STARTCHAR LOW LINE
ENCODING 95
SWIDTH 500 0
DWIDTH 8 0
BBX 7 1 0 -1
BITMAP
FE
ENDCHAR
STARTCHAR GRAVE ACCENT
ENCODING 96
SWIDTH 500 0
DWIDTH 8 0
BBX 3 3 2 4
BITMAP
80
40
20
ENDCHAR
STARTCHAR LATIN SMALL LETTER A
ENCODING 97
SWIDTH 500 0
DWIDTH 8 0
BBX 7 5 0 0
BITMAP
78
04
7C
84
7E
ENDCHAR
STARTCHAR LATIN SMALL LETTER B
ENCODING 98
SWIDTH 500 0
DWIDTH 8 0
BBX 7 7 0 0
BITMAP
C0
40
7C
42
42
42
FC
ENDCHAR
STARTCHAR LATIN SMALL LETTER C
ENCODING 99
SWIDTH 500 0
DWIDTH 8 0
BBX 7 5 0 0
BITMAP
7C
82
80
82
7C
ENDCHAR
STARTCHAR LATIN SMALL LETTER D
ENCODING 100
SWIDTH 500 0
DWIDTH 8 0
BBX 7 7 0 0
BITMAP
06
04
7C
84
84
84
7E
ENDCHAR
STARTCHAR LATIN SMALL LETTER E
ENCODING 101
SWIDTH 500 0
DWIDTH 8 0
BBX 7 5 0 0
BITMAP
7C
82
FE
80
7C
ENDCHAR
STARTCHAR LATIN SMALL LETTER F
ENCODING 102
SWIDTH 500 0
DWIDTH 8 0
BBX 4 7 2 0
BITMAP
30
40
F0
40
40
40
E0
ENDCHAR
STARTCHAR LATIN SMALL LETTER G
ENCODING 103
SWIDTH 500 0
DWIDTH 8 0
BBX 7 7 0 -2
BITMAP
7A
84
84
84
7C
84
78
ENDCHAR
STARTCHAR LATIN SMALL LETTER H
ENCODING 104
SWIDTH 500 0
DWIDTH 8 0
BBX 7 7 0 0
BITMAP
C0
40
58
64
44
44
C6
ENDCHAR
STARTCHAR LATIN SMALL LETTER I
ENCODING 105
SWIDTH 500 0
DWIDTH 8 0
BBX 3 7 2 0
BITMAP
40
00
C0
40
40
40
E0
ENDCHAR
STARTCHAR LATIN SMALL LETTER J
ENCODING 106
SWIDTH 500 0
DWIDTH 8 0
BBX 6 9 0 -2
BITMAP
04
00
0C
04
04
04
04
84
78
ENDCHAR
STARTCHAR LATIN SMALL LETTER K
ENCODING 107
SWIDTH 500 0
DWIDTH 8 0
BBX 6 7 1 0
BITMAP
C0
40
4C
50
70
48
C4
ENDCHAR
STARTCHAR LATIN SMALL LETTER L
ENCODING 108
SWIDTH 500 0
DWIDTH 8 0
BBX 5 7 0 0
BITMAP
30
10
10
10
10
10
38
ENDCHAR
STARTCHAR LATIN SMALL LETTER M
ENCODING 109
SWIDTH 500 0
DWIDTH 8 0
BBX 7 5 0 0
BITMAP
A8
54
54
44
C6
ENDCHAR
STARTCHAR LATIN SMALL LETTER N
ENCODING 110
SWIDTH 500 0
DWIDTH 8 0
BBX 7 5 0 0
BITMAP
B8
44
44
44
C6
ENDCHAR
STARTCHAR LATIN SMALL LETTER O
ENCODING 111
SWIDTH 500 0
DWIDTH 8 0
BBX 7 5 0 0
BITMAP
7C
82
82
82
7C
ENDCHAR
STARTCHAR LATIN SMALL LETTER P
ENCODING 112
SWIDTH 500 0
DWIDTH 8 0
BBX 7 7 0 -2
BITMAP
FC
42
42
42
7C
40
E0
ENDCHAR
STARTCHAR LATIN SMALL LETTER Q
ENCODING 113
SWIDTH 500 0
DWIDTH 8 0
BBX 7 7 0 -2
BITMAP
7E
84
84
8C
74
04
06
ENDCHAR
STARTCHAR LATIN SMALL LETTER R
ENCODING 114
SWIDTH 500 0
DWIDTH 8 0
BBX 7 5 0 0
BITMAP
DC
62
40
40
C0
ENDCHAR
STARTCHAR LATIN SMALL LETTER S
ENCODING 115
SWIDTH 500 0
DWIDTH 8 0
BBX 7 5 0 0
BITMAP
7C
80
7C
02
7C
ENDCHAR
STARTCHAR LATIN SMALL LETTER T
ENCODING 116
SWIDTH 500 0
DWIDTH 8 0
BBX 6 7 0 0
BITMAP
10
10
3C
10
10
10
0C
ENDCHAR
STARTCHAR LATIN SMALL LETTER U
ENCODING 117
SWIDTH 500 0
DWIDTH 8 0
BBX 7 5 0 0
BITMAP
C6
44
44
44
3A
ENDCHAR
STARTCHAR LATIN SMALL LETTER V
ENCODING 118
SWIDTH 500 0
DWIDTH 8 0
BBX 7 5 0 0
BITMAP
82
44
44
28
10
ENDCHAR
STARTCHAR LATIN SMALL LETTER W
ENCODING 119
SWIDTH 500 0
DWIDTH 8 0
BBX 7 5 0 0
BITMAP
82
82
92
AA
44
ENDCHAR
STARTCHAR LATIN SMALL LETTER X
ENCODING 120
SWIDTH 500 0
DWIDTH 8 0
BBX 7 5 0 0
BITMAP
C6
28
10
28
C6
ENDCHAR
STARTCHAR LATIN SMALL LETTER Y
ENCODING 121
SWIDTH 500 0
DWIDTH 8 0
BBX 7 7 0 -2
BITMAP
C6
44
44
44
3C
44
38
ENDCHAR
STARTCHAR LATIN SMALL LETTER Z
ENCODING 122
SWIDTH 500 0
DWIDTH 8 0
BBX 7 5 0 0
BITMAP
FE
8C
30
42
FE
ENDCHAR
STARTCHAR LEFT CURLY BRACKET
ENCODING 123
SWIDTH 500 0
DWIDTH 8 0
BBX 3 9 2 -2
BITMAP
20
40
40
40
80
40
40
40
20
ENDCHAR
STARTCHAR VERTICAL LINE
ENCODING 124
SWIDTH 500 0
DWIDTH 8 0
BBX 4 9 0 -2
BITMAP
10
10
10
10
10
10
10
10
10
ENDCHAR
STARTCHAR RIGHT CURLY BRACKET
ENCODING 125
SWIDTH 500 0
DWIDTH 8 0
BBX 5 9 0 -2
BITMAP
20
10
10
10
08
10
10
10
20
ENDCHAR
STARTCHAR TILDE
ENCODING 126
SWIDTH 500 0
DWIDTH 8 0
BBX 7 3 0 2
BITMAP
60
92
0C
ENDCHAR
STARTCHAR DELETE
ENCODING 127
SWIDTH 500 0
DWIDTH 8 0
BBX 7 9 0 -2
BITMAP
FE
AA
EE
AA
FE
82
82
82
FE
ENDCHAR
STARTCHAR PADDING CHARACTER
ENCODING 128
SWIDTH 500 0
DWIDTH 8 0
BBX 7 9 0 -2
BITMAP
FE
AA
BA
AA
FE
FE
FE
FE
FE
ENDCHAR
STARTCHAR HIGH OCTET PRESET
ENCODING 129
SWIDTH 500 0
DWIDTH 8 0
BBX 7 9 0 -2
BITMAP
FE
AA
BA
AA
FE
FE
EE
FE
FE
ENDCHAR
STARTCHAR BREAK PERMITTED HERE
ENCODING 130
SWIDTH 500 0
DWIDTH 8 0
BBX 7 9 0 -2
BITMAP
FE
AA
BA
AA
FE
FE
D6
FE
FE
ENDCHAR
STARTCHAR NO BREAK HERE
ENCODING 131
SWIDTH 500 0
DWIDTH 8 0
BBX 7 9 0 -2
BITMAP
FE
AA
BA
AA
FE
FE
AA
FE
FE
ENDCHAR
STARTCHAR INDEX
ENCODING 132
SWIDTH 500 0
DWIDTH 8 0
BBX 7 9 0 -2
BITMAP
FE
AA
BA
AA
FE
D6
FE
D6
FE
ENDCHAR
STARTCHAR NEXT LINE
ENCODING 133
SWIDTH 500 0
DWIDTH 8 0
BBX 7 9 0 -2
BITMAP
FE
AA
BA
AA
FE
BA
EE
BA
FE
ENDCHAR
STARTCHAR START OF SELECTED AREA
ENCODING 134
SWIDTH 500 0
DWIDTH 8 0
BBX 7 9 0 -2
BITMAP
FE
AA
BA
AA
FE
AA
FE
AA
FE
ENDCHAR
STARTCHAR END OF SELECTED AREA
ENCODING 135
SWIDTH 500 0
DWIDTH 8 0
BBX 7 9 0 -2
BITMAP
FE
AA
BA
AA
FE
AA
EE
AA
FE
ENDCHAR
STARTCHAR CHARACTER TABULATION SET
ENCODING 136
SWIDTH 500 0
DWIDTH 8 0
BBX 7 9 0 -2
BITMAP
FE
AA
BA
AA
FE
AA
BA
AA
FE
ENDCHAR
STARTCHAR CHARACTER TABULATION WITH JUSTIFICATION
ENCODING 137
SWIDTH 500 0
DWIDTH 8 0
BBX 7 9 0 -2
BITMAP
FE
AA
BA
AA
FE
AA
AA
AA
FE
ENDCHAR
STARTCHAR LINE TABULATION SET
ENCODING 138
SWIDTH 500 0
DWIDTH 8 0
BBX 7 9 0 -2
BITMAP
FE
AA
BA
AA
FE
A2
BA
8A
FE
ENDCHAR
STARTCHAR PARTIAL LINE FORWARD
ENCODING 139
SWIDTH 500 0
DWIDTH 8 0
BBX 7 9 0 -2
BITMAP
FE
AA
BA
AA
FE
A2
AA
8A
FE
ENDCHAR
STARTCHAR PARTIAL LINE BACKWARD
ENCODING 140
SWIDTH 500 0
DWIDTH 8 0
BBX 7 9 0 -2
BITMAP
FE
AA
BA
AA
FE
82
AA
8A
FE
ENDCHAR
STARTCHAR REVERSE LINE FEED
ENCODING 141
SWIDTH 500 0
DWIDTH 8 0
BBX 7 9 0 -2
BITMAP
FE
AA
BA
AA
FE
82
AA
82
FE
ENDCHAR
STARTCHAR SINGLE SHIFT TWO
ENCODING 142
SWIDTH 500 0
DWIDTH 8 0
BBX 7 9 0 -2
BITMAP
FE
AA
BA
AA
FE
82
92
82
FE
ENDCHAR
STARTCHAR SINGLE SHIFT THREE
ENCODING 143
SWIDTH 500 0
DWIDTH 8 0
BBX 7 9 0 -2
BITMAP
FE
AA
BA
AA
FE
82
82
82
FE
ENDCHAR
STARTCHAR DEVICE CONTROL STRING
ENCODING 144
SWIDTH 500 0
DWIDTH 8 0
BBX 7 9 0 -2
BITMAP
FE
AA
AA
AA
FE
FE
FE
FE
FE
ENDCHAR
STARTCHAR PRIVATE USE ONE
ENCODING 145
SWIDTH 500 0
DWIDTH 8 0
BBX 7 9 0 -2
BITMAP
FE
AA
AA
AA
FE
FE
EE
FE
FE
ENDCHAR
STARTCHAR PRIVATE USE TWO
ENCODING 146
SWIDTH 500 0
DWIDTH 8 0
BBX 7 9 0 -2
BITMAP
FE
AA
AA
AA
FE
FE
D6
FE
FE
ENDCHAR
STARTCHAR SET TRANSMIT STATE
ENCODING 147
SWIDTH 500 0
DWIDTH 8 0
BBX 7 9 0 -2
BITMAP
FE
AA
AA
AA
FE
FE
AA
FE
FE
ENDCHAR
STARTCHAR CANCEL CHARACTER
ENCODING 148
SWIDTH 500 0
DWIDTH 8 0
BBX 7 9 0 -2
BITMAP
FE
AA
AA
AA
FE
D6
FE
D6
FE
ENDCHAR
STARTCHAR MESSAGE WAITING
ENCODING 149
SWIDTH 500 0
DWIDTH 8 0
BBX 7 9 0 -2
BITMAP
FE
AA
AA
AA
FE
BA
EE
BA
FE
ENDCHAR
STARTCHAR START OF GUARDED AREA
ENCODING 150
SWIDTH 500 0
DWIDTH 8 0
BBX 7 9 0 -2
BITMAP
FE
AA
AA
AA
FE
AA
FE
AA
FE
ENDCHAR
STARTCHAR END OF GUARDED AREA
ENCODING 151
SWIDTH 500 0
DWIDTH 8 0
BBX 7 9 0 -2
BITMAP
FE
AA
AA
AA
FE
AA
EE
AA
FE
ENDCHAR
STARTCHAR START OF STRING
ENCODING 152
SWIDTH 500 0
DWIDTH 8 0
BBX 7 9 0 -2
BITMAP
FE
AA
AA
AA
FE
AA
BA
AA
FE
ENDCHAR
STARTCHAR SINGLE GRAPHIC CHARACTER INTRODUCER
ENCODING 153
SWIDTH 500 0
DWIDTH 8 0
BBX 7 9 0 -2
BITMAP
FE
AA
AA
AA
FE
AA
AA
AA
FE
ENDCHAR
STARTCHAR SINGLE CHARACTER INTRODUCER
ENCODING 154
SWIDTH 500 0
DWIDTH 8 0
BBX 7 9 0 -2
BITMAP
FE
AA
AA
AA
FE
A2
BA
8A
FE
ENDCHAR
STARTCHAR CONTROL SEQUENCE INTRODUCER
ENCODING 155
SWIDTH 500 0
DWIDTH 8 0
BBX 7 9 0 -2
BITMAP
FE
AA
AA
AA
FE
A2
AA
8A
FE
ENDCHAR
STARTCHAR STRING TERMINATOR
ENCODING 156
SWIDTH 500 0
DWIDTH 8 0
BBX 7 9 0 -2
BITMAP
FE
AA
AA
AA
FE
82
AA
8A
FE
ENDCHAR
STARTCHAR OPERATING SYSTEM COMMAND
ENCODING 157
SWIDTH 500 0
DWIDTH 8 0
BBX 7 9 0 -2
BITMAP
FE
AA
AA
AA
FE
82
AA
82
FE
ENDCHAR
STARTCHAR PRIVACY MESSAGE
ENCODING 158
SWIDTH 500 0
DWIDTH 8 0
BBX 7 9 0 -2
BITMAP
FE
AA
AA
AA
FE
82
92
82
FE
ENDCHAR
STARTCHAR APPLICATION PROGRAM COMMAND
ENCODING 159
SWIDTH 500 0
DWIDTH 8 0
BBX 7 9 0 -2
BITMAP
FE
AA
AA
AA
FE
82
82
82
FE
ENDCHAR
STARTCHAR NO BREAK SPACE
ENCODING 160
SWIDTH 500 0
DWIDTH 8 0
BBX 7 9 0 -2
BITMAP
FE
A2
BA
8A
FE
FE
FE
FE
FE
ENDCHAR
STARTCHAR INVERTED EXCLAMATION MARK
ENCODING 161
SWIDTH 500 0
DWIDTH 8 0
BBX 1 7 3 0
BITMAP
80
00
80
80
80
80
80
ENDCHAR
STARTCHAR CENT SIGN
ENCODING 162
SWIDTH 500 0
DWIDTH 8 0
BBX 7 7 0 -1
BITMAP
08
7C
92
90
92
7C
20
ENDCHAR
STARTCHAR POUND SIGN
ENCODING 163
SWIDTH 500 0
DWIDTH 8 0
BBX 7 7 0 0
BITMAP
1C
22
20
7C
20
40
FE
ENDCHAR
STARTCHAR CURRENCY SIGN
ENCODING 164
SWIDTH 500 0
DWIDTH 8 0
BBX 7 7 0 0
BITMAP
82
7C
44
44
44
7C
82
ENDCHAR
STARTCHAR YEN SIGN
ENCODING 165
SWIDTH 500 0
DWIDTH 8 0
BBX 7 7 0 0
BITMAP
82
44
28
7C
10
7C
10
ENDCHAR
STARTCHAR BROKEN BAR
ENCODING 166
SWIDTH 500 0
DWIDTH 8 0
BBX 1 9 3 -2
BITMAP
80
80
80
80
00
80
80
80
80
ENDCHAR
STARTCHAR SECTION SIGN
ENCODING 167
SWIDTH 500 0
DWIDTH 8 0
BBX 5 7 0 0
BITMAP
18
20
10
28
10
08
30
ENDCHAR
STARTCHAR DIARESIS
ENCODING 168
SWIDTH 500 0
DWIDTH 8 0
BBX 3 1 2 6
BITMAP
A0
ENDCHAR
STARTCHAR COPYRIGHT SIGN
ENCODING 169
SWIDTH 500 0
DWIDTH 8 0
BBX 7 7 0 0
BITMAP
38
44
9A
A2
9A
44
38
ENDCHAR
STARTCHAR FEMININE ORDINAL INDICATOR
ENCODING 170
SWIDTH 500 0
DWIDTH 8 0
BBX 3 7 2 0
BITMAP
40
20
60
A0
60
00
E0
ENDCHAR
STARTCHAR LEFT-POINTING DOUBLE ANGLE QUOTATION MARK
ENCODING 171
SWIDTH 500 0
DWIDTH 8 0
BBX 6 5 1 1
BITMAP
24
48
90
48
24
ENDCHAR
STARTCHAR NOT SIGN
ENCODING 172
SWIDTH 500 0
DWIDTH 8 0
BBX 7 3 0 2
BITMAP
FE
02
02
ENDCHAR
STARTCHAR SOFT HYPHEN
ENCODING 173
SWIDTH 500 0
DWIDTH 8 0
BBX 7 9 0 -2
BITMAP
FE
A2
BA
8A
FE
82
AA
82
FE
ENDCHAR
STARTCHAR REGISTERED SIGN
ENCODING 174
SWIDTH 500 0
DWIDTH 8 0
BBX 7 7 0 0
BITMAP
38
44
BA
B2
AA
44
38
ENDCHAR
STARTCHAR MACRON
ENCODING 175
SWIDTH 500 0
DWIDTH 8 0
BBX 5 1 1 6
BITMAP
F8
ENDCHAR
STARTCHAR DEGREE SIGN
ENCODING 176
SWIDTH 500 0
DWIDTH 8 0
BBX 4 4 1 3
BITMAP
60
90
90
60
ENDCHAR
STARTCHAR PLUS-MINUS SIGN
ENCODING 177
SWIDTH 500 0
DWIDTH 8 0
BBX 5 7 1 0
BITMAP
20
20
F8
20
20
00
F8
ENDCHAR
STARTCHAR SUPERSCRIPT TWO
ENCODING 178
SWIDTH 500 0
DWIDTH 8 0
BBX 4 5 2 2
BITMAP
E0
10
60
80
F0
ENDCHAR
STARTCHAR SUPERSCRIPT THREE
ENCODING 179
SWIDTH 500 0
DWIDTH 8 0
BBX 4 5 2 2
BITMAP
E0
10
60
10
E0
ENDCHAR
STARTCHAR ACUTE ACCENT
ENCODING 180
SWIDTH 500 0
DWIDTH 8 0
BBX 3 3 2 4
BITMAP
20
40
80
ENDCHAR
STARTCHAR MICRO SIGN
ENCODING 181
SWIDTH 500 0
DWIDTH 8 0
BBX 7 7 0 -2
BITMAP
44
44
44
64
5A
40
C0
ENDCHAR
STARTCHAR PILCROW SIGN
ENCODING 182
SWIDTH 500 0
DWIDTH 8 0
BBX 7 7 0 0
BITMAP
7E
FA
FA
7A
0A
0A
0A
ENDCHAR
STARTCHAR MIDDLE DOT
ENCODING 183
SWIDTH 500 0
DWIDTH 8 0
BBX 3 3 2 2
BITMAP
40
E0
40
ENDCHAR
STARTCHAR CEDILLA
ENCODING 184
SWIDTH 500 0
DWIDTH 8 0
BBX 3 2 2 -2
BITMAP
40
C0
ENDCHAR
STARTCHAR SUPERSCRIPT ONE
ENCODING 185
SWIDTH 500 0
DWIDTH 8 0
BBX 3 5 2 2
BITMAP
40
C0
40
40
E0
ENDCHAR
STARTCHAR MASCULINE ORDINAL INDICATOR
ENCODING 186
SWIDTH 500 0
DWIDTH 8 0
BBX 3 6 2 1
BITMAP
40
A0
A0
40
00
E0
ENDCHAR
STARTCHAR RIGHT-POINTING DOUBLE ANGLE QUOTATION MARK
ENCODING 187
SWIDTH 500 0
DWIDTH 8 0
BBX 6 5 0 1
BITMAP
90
48
24
48
90
ENDCHAR
STARTCHAR VULGAR FRACTION ONE QUARTER
ENCODING 188
SWIDTH 500 0
DWIDTH 8 0
BBX 7 7 0 0
BITMAP
42
C4
48
52
2A
4E
82
ENDCHAR
STARTCHAR VULGAR FRACTION ONE HALF
ENCODING 189
SWIDTH 500 0
DWIDTH 8 0
BBX 7 7 0 0
BITMAP
42
C4
48
5C
22
44
8E
ENDCHAR
STARTCHAR VULGAR FRACTION THREE QUARTERS
ENCODING 190
SWIDTH 500 0
DWIDTH 8 0
BBX 7 7 0 0
BITMAP
E2
44
28
D2
2A
4E
82
ENDCHAR
STARTCHAR INVERTED QUESTION MARK
ENCODING 191
SWIDTH 500 0
DWIDTH 8 0
BBX 7 7 0 0
BITMAP
10
00
10
0C
82
82
7C
ENDCHAR
STARTCHAR LATIN CAPITAL LETTER A WITH GRAVE
ENCODING 192
SWIDTH 500 0
DWIDTH 8 0
BBX 7 7 0 0
BITMAP
30
08
7C
82
FE
82
82
ENDCHAR
STARTCHAR LATIN CAPITAL LETTER A WITH ACUTE
ENCODING 193
SWIDTH 500 0
DWIDTH 8 0
BBX 7 7 0 0
BITMAP
18
20
7C
82
FE
82
82
ENDCHAR
STARTCHAR LATIN CAPITAL LETTER A WITH CIRCUMFLEX
ENCODING 194
SWIDTH 500 0
DWIDTH 8 0
BBX 7 7 0 0
BITMAP
10
28
7C
82
FE
82
82
ENDCHAR
STARTCHAR LATIN CAPITAL LETTER A WITH TILDE
ENCODING 195
SWIDTH 500 0
DWIDTH 8 0
BBX 7 7 0 0
BITMAP
38
00
7C
82
FE
82
82
ENDCHAR
STARTCHAR LATIN CAPITAL LETTER A WITH DIARESIS
ENCODING 196
SWIDTH 500 0
DWIDTH 8 0
BBX 7 7 0 0
BITMAP
28
00
7C
82
FE
82
82
ENDCHAR
STARTCHAR LATIN CAPITAL LETTER A WITH RING ABOVE
ENCODING 197
SWIDTH 500 0
DWIDTH 8 0
BBX 7 7 0 0
BITMAP
38
28
7C
82
FE
82
82
ENDCHAR
STARTCHAR LATIN CAPITAL LETTER AE
ENCODING 198
SWIDTH 500 0
DWIDTH 8 0
BBX 7 7 0 0
BITMAP
3E
50
90
FC
90
90
9E
ENDCHAR
STARTCHAR LATIN CAPITAL LETTER C WITH CEDILLA
ENCODING 199
SWIDTH 500 0
DWIDTH 8 0
BBX 7 9 0 -2
BITMAP
3C
42
80
80
80
42
3C
08
18
ENDCHAR
STARTCHAR LATIN CAPITAL LETTER E WITH GRAVE
ENCODING 200
SWIDTH 500 0
DWIDTH 8 0
BBX 7 7 0 0
BITMAP
30
08
FE
80
F8
80
FE
ENDCHAR
STARTCHAR LATIN CAPITAL LETTER E WITH ACUTE
ENCODING 201
SWIDTH 500 0
DWIDTH 8 0
BBX 7 7 0 0
BITMAP
18
20
FE
80
F8
80
FE
ENDCHAR
STARTCHAR LATIN CAPITAL LETTER E WITH CIRCUMFLEX
ENCODING 202
SWIDTH 500 0
DWIDTH 8 0
BBX 7 7 0 0
BITMAP
10
28
FE
80
F8
80
FE
ENDCHAR
STARTCHAR LATIN CAPITAL LETTER E WITH DIARESIS
ENCODING 203
SWIDTH 500 0
DWIDTH 8 0
BBX 7 7 0 0
BITMAP
28
00
FE
80
F8
80
FE
ENDCHAR
STARTCHAR LATIN CAPITAL LETTER I WITH GRAVE
ENCODING 204
SWIDTH 500 0
DWIDTH 8 0
BBX 5 7 1 0
BITMAP
60
10
F8
20
20
20
F8
ENDCHAR
STARTCHAR LATIN CAPITAL LETTER I WITH ACUTE
ENCODING 205
SWIDTH 500 0
DWIDTH 8 0
BBX 5 7 1 0
BITMAP
30
40
F8
20
20
20
F8
ENDCHAR
STARTCHAR LATIN CAPITAL LETTER I WITH CIRCUMFLEX
ENCODING 206
SWIDTH 500 0
DWIDTH 8 0
BBX 5 7 1 0
BITMAP
20
50
F8
20
20
20
F8
ENDCHAR
STARTCHAR LATIN CAPITAL LETTER I WITH DIARESIS
ENCODING 207
SWIDTH 500 0
DWIDTH 8 0
BBX 5 7 1 0
BITMAP
50
00
F8
20
20
20
F8
ENDCHAR
STARTCHAR LATIN CAPITAL LETTER ETH
ENCODING 208
SWIDTH 500 0
DWIDTH 8 0
BBX 7 7 0 0
BITMAP
F8
44
42
E2
42
44
F8
ENDCHAR
STARTCHAR LATIN CAPITAL LETTER N WITH TILDE
ENCODING 209
SWIDTH 500 0
DWIDTH 8 0
BBX 7 7 0 0
BITMAP
38
82
C2
B2
8A
86
82
ENDCHAR
STARTCHAR LATIN CAPITAL LETTER O WITH GRAVE
ENCODING 210
SWIDTH 500 0
DWIDTH 8 0
BBX 7 7 0 0
BITMAP
30
08
7C
82
82
82
7C
ENDCHAR
STARTCHAR LATIN CAPITAL LETTER O WITH ACUTE
ENCODING 211
SWIDTH 500 0
DWIDTH 8 0
BBX 7 7 0 0
BITMAP
18
20
7C
82
82
82
7C
ENDCHAR
STARTCHAR LATIN CAPITAL LETTER O WITH CIRCUMFLEX
ENCODING 212
SWIDTH 500 0
DWIDTH 8 0
BBX 7 7 0 0
BITMAP
10
28
7C
82
82
82
7C
ENDCHAR
STARTCHAR LATIN CAPITAL LETTER O WITH TILDE
ENCODING 213
SWIDTH 500 0
DWIDTH 8 0
BBX 7 7 0 0
BITMAP
38
00
7C
82
82
82
7C
ENDCHAR
STARTCHAR LATIN CAPITAL LETTER O WITH DIARESIS
ENCODING 214
SWIDTH 500 0
DWIDTH 8 0
BBX 7 7 0 0
BITMAP
28
00
7C
82
82
82
7C
ENDCHAR
STARTCHAR MULTIPLICATION SIGN
ENCODING 215
SWIDTH 500 0
DWIDTH 8 0
BBX 5 5 1 1
BITMAP
88
50
20
50
88
ENDCHAR
STARTCHAR LATIN CAPITAL LETTER O WITH STROKE
ENCODING 216
SWIDTH 500 0
DWIDTH 8 0
BBX 7 7 0 0
BITMAP
3A
44
8A
92
A2
44
B8
ENDCHAR
STARTCHAR LATIN CAPITAL LETTER U WITH GRAVE
ENCODING 217
SWIDTH 500 0
DWIDTH 8 0
BBX 7 7 0 0
BITMAP
30
08
82
82
82
82
7C
ENDCHAR
STARTCHAR LATIN CAPITAL LETTER U WITH ACUTE
ENCODING 218
SWIDTH 500 0
DWIDTH 8 0
BBX 7 7 0 0
BITMAP
18
20
82
82
82
82
7C
ENDCHAR
STARTCHAR LATIN CAPITAL LETTER U WITH CIRCUMFLEX
ENCODING 219
SWIDTH 500 0
DWIDTH 8 0
BBX 7 7 0 0
BITMAP
10
28
82
82
82
82
7C
ENDCHAR
STARTCHAR LATIN CAPITAL LETTER U WITH DIARESIS
ENCODING 220
SWIDTH 500 0
DWIDTH 8 0
BBX 7 7 0 0
BITMAP
28
00
82
82
82
82
7C
ENDCHAR
STARTCHAR LATIN CAPITAL LETTER Y WITH ACUTE
ENCODING 221
SWIDTH 500 0
DWIDTH 8 0
BBX 7 7 0 0
BITMAP
18
20
82
44
28
10
10
ENDCHAR
STARTCHAR LATIN CAPITAL LETTER THORN
ENCODING 222
SWIDTH 500 0
DWIDTH 8 0
BBX 7 7 0 0
BITMAP
C0
7C
42
42
7C
40
C0
ENDCHAR
STARTCHAR LATIN SMALL LETTER SHARP S
ENCODING 223
SWIDTH 500 0
DWIDTH 8 0
BBX 7 7 0 0
BITMAP
38
44
48
5C
42
42
DC
ENDCHAR
STARTCHAR LATIN SMALL LETTER A WITH GRAVE
ENCODING 224
SWIDTH 500 0
DWIDTH 8 0
BBX 7 7 0 0
BITMAP
30
08
78
04
7C
84
7E
ENDCHAR
STARTCHAR LATIN SMALL LETTER A WITH ACUTE
ENCODING 225
SWIDTH 500 0
DWIDTH 8 0
BBX 7 7 0 0
BITMAP
18
20
78
04
7C
84
7E
ENDCHAR
STARTCHAR LATIN SMALL LETTER A WITH CIRCUMFLEX
ENCODING 226
SWIDTH 500 0
DWIDTH 8 0
BBX 7 7 0 0
BITMAP
10
28
78
04
7C
84
7E
ENDCHAR
STARTCHAR LATIN SMALL LETTER A WITH TILDE
ENCODING 227
SWIDTH 500 0
DWIDTH 8 0
BBX 7 7 0 0
BITMAP
38
00
78
04
7C
84
7E
ENDCHAR
STARTCHAR LATIN SMALL LETTER A WITH DIARESIS
ENCODING 228
SWIDTH 500 0
DWIDTH 8 0
BBX 7 7 0 0
BITMAP
28
00
78
04
7C
84
7E
ENDCHAR
STARTCHAR LATIN SMALL LETTER A WITH RING ABOVE
ENCODING 229
SWIDTH 500 0
DWIDTH 8 0
BBX 7 7 0 0
BITMAP
38
28
78
04
7C
84
7E
ENDCHAR
STARTCHAR LATIN SMALL LETTER AE
ENCODING 230
SWIDTH 500 0
DWIDTH 8 0
BBX 7 5 0 0
BITMAP
6C
12
7E
90
6C
ENDCHAR
STARTCHAR LATIN SMALL LETTER C WITH CEDILLA
ENCODING 231
SWIDTH 500 0
DWIDTH 8 0
BBX 7 7 0 -2
BITMAP
7C
82
80
82
7C
08
18
ENDCHAR
STARTCHAR LATIN SMALL LETTER E WITH GRAVE
ENCODING 232
SWIDTH 500 0
DWIDTH 8 0
BBX 7 7 0 0
BITMAP
30
08
7C
82
FE
80
7C
ENDCHAR
STARTCHAR LATIN SMALL LETTER E WITH ACUTE
ENCODING 233
SWIDTH 500 0
DWIDTH 8 0
BBX 7 7 0 0
BITMAP
18
20
7C
82
FE
80
7C
ENDCHAR
STARTCHAR LATIN SMALL LETTER E WITH CIRCUMFLEX
ENCODING 234
SWIDTH 500 0
DWIDTH 8 0
BBX 7 7 0 0
BITMAP
10
28
7C
82
FE
80
7C
ENDCHAR
STARTCHAR LATIN SMALL LETTER E WITH DIARESIS
ENCODING 235
SWIDTH 500 0
DWIDTH 8 0
BBX 7 7 0 0
BITMAP
28
00
7C
82
FE
80
7C
ENDCHAR
STARTCHAR LATIN SMALL LETTER I WITH GRAVE
ENCODING 236
SWIDTH 500 0
DWIDTH 8 0
BBX 3 7 2 0
BITMAP
C0
20
C0
40
40
40
E0
ENDCHAR
STARTCHAR LATIN SMALL LETTER I WITH ACUTE
ENCODING 237
SWIDTH 500 0
DWIDTH 8 0
BBX 5 7 0 0
BITMAP
18
20
30
10
10
10
38
ENDCHAR
STARTCHAR LATIN SMALL LETTER I WITH CIRCUMFLEX
ENCODING 238
SWIDTH 500 0
DWIDTH 8 0
BBX 5 7 0 0
BITMAP
10
28
30
10
10
10
38
ENDCHAR
STARTCHAR LATIN SMALL LETTER I WITH DIARESIS
ENCODING 239
SWIDTH 500 0
DWIDTH 8 0
BBX 5 7 0 0
BITMAP
28
00
30
10
10
10
38
ENDCHAR
STARTCHAR LATIN SMALL LETTER ETH
ENCODING 240
SWIDTH 500 0
DWIDTH 8 0
BBX 7 7 0 0
BITMAP
14
38
08
78
84
82
7C
ENDCHAR
STARTCHAR LATIN SMALL LETTER N WITH TILDE
ENCODING 241
SWIDTH 500 0
DWIDTH 8 0
BBX 7 7 0 0
BITMAP
34
58
00
B8
44
44
C6
ENDCHAR
STARTCHAR LATIN SMALL LETTER O WITH GRAVE
ENCODING 242
SWIDTH 500 0
DWIDTH 8 0
BBX 7 7 0 0
BITMAP
30
08
00
7C
82
82
7C
ENDCHAR
STARTCHAR LATIN SMALL LETTER O WITH ACUTE
ENCODING 243
SWIDTH 500 0
DWIDTH 8 0
BBX 7 7 0 0
BITMAP
1C
20
00
7C
82
82
7C
ENDCHAR
STARTCHAR LATIN SMALL LETTER O WITH CIRCUMFLEX
ENCODING 244
SWIDTH 500 0
DWIDTH 8 0
BBX 7 7 0 0
BITMAP
10
28
00
7C
82
82
7C
ENDCHAR
STARTCHAR LATIN SMALL LETTER O WITH TILDE
ENCODING 245
SWIDTH 500 0
DWIDTH 8 0
BBX 7 7 0 0
BITMAP
34
58
00
7C
82
82
7C
ENDCHAR
STARTCHAR LATIN SMALL LETTER O WITH DIARESIS
ENCODING 246
SWIDTH 500 0
DWIDTH 8 0
BBX 7 6 0 0
BITMAP
28
00
7C
82
82
7C
ENDCHAR
STARTCHAR DIVISION SIGN
ENCODING 247
SWIDTH 500 0
DWIDTH 8 0
BBX 5 5 1 1
BITMAP
20
00
F8
00
20
ENDCHAR
STARTCHAR LATIN SMALL LETTER O WITH STROKE
ENCODING 248
SWIDTH 500 0
DWIDTH 8 0
BBX 7 5 0 0
BITMAP
3A
4C
92
64
B8
ENDCHAR
STARTCHAR LATIN SMALL LETTER U WITH GRAVE
ENCODING 249
SWIDTH 500 0
DWIDTH 8 0
BBX 7 7 0 0
BITMAP
30
08
C6
44
44
44
3A
ENDCHAR
STARTCHAR LATIN SMALL LETTER U WITH ACUTE
ENCODING 250
SWIDTH 500 0
DWIDTH 8 0
BBX 7 7 0 0
BITMAP
18
20
C6
44
44
44
3A
ENDCHAR
STARTCHAR LATIN SMALL LETTER U WITH CIRCUMFLEX
ENCODING 251
SWIDTH 500 0
DWIDTH 8 0
BBX 7 7 0 0
BITMAP
10
28
C6
44
44
44
3A
ENDCHAR
STARTCHAR LATIN SMALL LETTER U WITH DIARESIS
ENCODING 252
SWIDTH 500 0
DWIDTH 8 0
BBX 7 7 0 0
BITMAP
28
00
C6
44
44
44
3A
ENDCHAR
STARTCHAR LATIN SMALL LETTER Y WITH ACUTE
ENCODING 253
SWIDTH 500 0
DWIDTH 8 0
BBX 7 9 0 -2
BITMAP
18
20
C6
44
44
44
3C
44
38
ENDCHAR
STARTCHAR LATIN SMALL LETTER THORN
ENCODING 254
SWIDTH 500 0
DWIDTH 8 0
BBX 7 9 0 -2
BITMAP
C0
40
40
7C
42
62
5C
40
C0
ENDCHAR
STARTCHAR LATIN SMALL LETTER Y WITH DIARESIS
ENCODING 255
SWIDTH 500 0
DWIDTH 8 0
BBX 7 9 0 -2
BITMAP
28
00
C6
44
44
44
3C
44
38
ENDCHAR
ENDFONT
